<?xml version="1.0" encoding="utf-8"?>
<!-- Generator: Adobe Illustrator 13.0.0, SVG Export Plug-In . SVG Version: 6.00 Build 14948)  -->
<!DOCTYPE svg PUBLIC "-//W3C//DTD SVG 1.1//EN" "http://www.w3.org/Graphics/SVG/1.1/DTD/svg11.dtd" [
	<!ENTITY st0 "fill:#FF6700;">
	<!ENTITY st1 "fill:#FFFFFF;">
	<!ENTITY st2 "display:inline;">
	<!ENTITY st3 "display:none;">
]>
<svg version="1.1" xmlns="http://www.w3.org/2000/svg" xmlns:xlink="http://www.w3.org/1999/xlink" x="0px" y="0px" width="964px"
	 height="964px" viewBox="0 0 964 964" style="enable-background:new 0 0 964 964;" xml:space="preserve">
<g id="Layer_2" style="&st3;">
	<circle style="&st2;" cx="482" cy="482" r="482"/>
</g>
<g id="Layer_1">
	<g>
		<path style="&st0;" d="M781.623,278.562c-15.544-39.158-59.902-58.462-99.166-43.035c-39.258,15.531-58.508,59.963-43.043,99.206
			c15.511,39.254,59.863,58.494,99.107,43.021C777.84,362.267,797.081,317.874,781.623,278.562z"/>
		<path style="&st1;" d="M737.296,326.356c-20.005,7.921-42.544-1.884-50.297-21.813c-7.945-19.975,1.871-42.49,21.743-50.313
			c20.038-7.911,42.544,1.884,50.441,21.737C767.012,295.895,757.193,318.413,737.296,326.356z"/>
	</g>
	<g>
		<path style="&st0;" d="M675.272,500.96C642.019,461.4,581.04,400.208,492.28,317.337c-11.355-10.549-17.024-22.951-17.024-37.214
			c0-40.404,15.946-58.765,84.175-120.765c71.073-64.629,58.684-131.938,36.596-136.806c-32.844-7.201-70.827,4.338-144.044,45.77
			c-72.574,41.117-144.567,136.9-144.567,218.075c0,34.49,14.716,65.234,44.168,92.158
			c172.878,158.968,259.317,278.24,259.317,357.737c0,60.165-49.817,90.222-149.517,90.222c-43.362,0-76.981-9.23-100.986-27.749
			c-23.966-18.519-54.51-43.829-52.883-85.797c1.072-28.002,30.808-35.782,49.743-45.429c22.718-14.313,34.074-30.94,34.074-49.869
			c0-25.227-8.954-46.028-26.81-62.44c-17.875-16.444-39.452-24.647-64.673-24.647c-42.51,0-79.724,18.519-111.692,55.549
			c-30.719,35.322-46.066,74.648-46.066,118.01c0,71.099,31.123,131.643,93.388,181.713c58.04,46.678,152.253,77.523,225.036,77.523
			c46.816,0,113.174,3.19,192.312-34.062c84.131-39.957,134.119-118.13,134.119-195.515
			C786.945,667.76,749.731,590.116,675.272,500.96z"/>
		<path style="&st1;" d="M573.904,48.124c11.37,7.393,12.168,20.375,12.213,27.574c0.052,7.199-3.794,19.649-9.491,28.636
			c-3.651,5.798-17.284,14.884-21.651-2.533c-4.417-17.41,0.985-23.104-7.308-33.801c-7.378-9.518-41.534-4.85-40.667-5.667
			C518.333,51.667,558.333,38,573.904,48.124z"/>
		<path style="&st1;" d="M453.979,98.615c5.452-11.065,37.679-29.157,41.661-25.503c3.693,3.388,0.737,12.411-6.423,24.393
			c-7.156,12.073-25.102,18.906-33.384,16.995C449.333,113,450.833,105,453.979,98.615z"/>
		<path style="&st1;" d="M273.291,558.269c30.592-4.263,63.709,4.732,51.042,6.065c-21.969,2.312-36.815,24.521-47.024,25.883
			c-10.177,1.412-19.368-4.591-20.459-13.419C255.709,567.952,263.087,559.664,273.291,558.269z"/>
		<path style="&st1;" d="M323,625.667c5.654-6.448,7.2-10.967,0.5-17.667c-2.5-2.5-9.5-5-13-8.5
			c-8.865-8.865,16.934-18.916,25.167-18.5c8.249,0.473,22.667,9.959,22.667,31.334c0,21.085-27.868,35.19-54.006,44.245
			c-8.48,3.001-21.907,4.061-21.907,4.061C304,644,313.5,636.5,323,625.667z"/>
		<path style="&st1;" d="M310.333,819.666c-8.727-7.384-22.679-24.558-23.667-35.667c-0.966-11.103,1.404-20.285,9.333-18.667
			c7.936,1.582,13.392,13.583,17.667,20.334c4.868,7.692,9.001,12.898,13.333,19C330.915,810.191,324.315,831.468,310.333,819.666z"
			/>
		<path style="&st1;" d="M562.333,841.667c-5.953,6.575-21.669,17.015-50,26.999c-26.215,9.459-44.333,12.333-70.667,12
			c-14.808-0.188-45.506-5.788-68.082-18.586c-24.251-13.748-35.312-27.799-37.763-33.896c-3.156-7.852,1.651-16.035,6.511-11.185
			c4.854,4.825,30.069,21.213,47.333,26.333c17.34,5.143,32.333,10.667,56.694,11.372c52.213,1.511,84.82-6.254,115.663-19.397
			C568.943,832.391,568.245,835.024,562.333,841.667z"/>
		<path style="&st1;" d="M655.5,561c-15.833-16.666-35.167-46-61.167-76c-19.677-22.704-60.501-56.868-72.259-66.845
			c-17.074-14.488,3.593-20.488,20.151-11.737c12.983,6.862,47.167,35.778,68.107,59.916C631.21,490.421,669.667,537.667,675,552
			C677.688,559.222,663.307,569.218,655.5,561z"/>
	</g>
</g>
</svg>
